<svg width="50" height="48" viewBox="0 0 50 48" fill="none" xmlns="http://www.w3.org/2000/svg">
<path fill-rule="evenodd" clip-rule="evenodd" d="M12.4969 27.4698C12.2687 28.414 12.1489 29.3811 12.14 30.3524C12.1451 32.0861 12.8929 33.56 13.9254 34.1524C14.3572 34.3994 15.2375 34.6066 15.622 34.1959C16.0065 33.7852 15.7109 32.6817 15.5324 32.143C15.1031 30.9446 14.5339 29.8009 13.8365 28.7358C13.5708 28.1814 13.1722 27.7012 12.676 27.338C12.676 27.3112 12.669 27.2862 12.6312 27.2945C12.5314 27.3067 12.5033 27.4308 12.4969 27.4692V27.4698ZM18.3888 10.4793C17.9347 9.89917 17.339 9.44578 16.6589 9.16275C15.9788 8.87972 15.2372 8.77659 14.5057 8.8633C12.2346 9.09296 10.4331 11.5067 10.7114 14.1481C10.8636 15.0996 11.1026 16.0352 11.4254 16.9431C12.8846 21.6176 15.4889 24.6109 17.4957 28.6923C18.2992 30.3256 19.223 32.3388 18.9671 34.2388C18.6837 36.3499 16.5291 37.4611 14.2331 37.2525C13.533 37.2297 12.8465 37.0536 12.2218 36.7367C11.5971 36.4198 11.0494 35.9698 10.6174 35.4184C9.77528 34.0767 9.28403 32.5447 9.18887 30.9634C9.09228 29.0749 9.4806 27.4935 9.63669 25.5474C9.19208 25.8974 9.22278 26.3516 9.10059 26.7706C8.58162 28.2723 8.33951 29.8557 8.38601 31.4438C8.46501 33.1792 9.08987 34.8453 10.1715 36.2047C10.6759 36.8741 11.3213 37.4246 12.062 37.817C12.8026 38.2095 13.6205 38.4343 14.4577 38.4757C17.7293 38.6676 19.5115 37.0133 19.8141 34.2388C20.134 31.2839 18.8161 28.7256 17.7606 26.7706C16.6596 24.7305 15.3469 22.5254 14.2792 20.6126C13.1495 18.5885 11.726 16.0705 11.735 13.493C11.7327 12.6714 11.9319 11.8617 12.3152 11.135C13.0759 9.89647 14.9842 9.61562 16.5554 10.3488C18.3255 11.1746 19.2288 13.2199 19.635 15.4589C19.7771 16.2413 20.0451 17.2047 19.903 17.7299C19.8077 18.0844 19.2384 18.5616 18.9659 18.909C18.6172 19.3568 18.4016 19.7553 18.1176 20.0886C17.6845 18.0037 17.3749 15.8395 16.5554 14.0617C16.3826 13.6862 15.8817 12.6313 15.2612 12.7951C14.6048 12.9691 15.1115 14.9004 15.2612 15.3719C15.5437 16.1475 15.8717 16.9058 16.2432 17.6429C18.3338 22.0334 21.6988 25.5468 23.0275 30.3531V16.201C22.3622 16.3929 21.796 16.6846 21.1083 16.8561C20.5818 14.6055 19.754 12.0882 18.3856 10.4793H18.3888ZM22.8938 13.1431C23.0473 11.4734 22.9853 9.59195 23.0275 7.81479H25.9286V40.441H22.9379V35.2873C22.4199 36.9949 21.3728 38.4937 19.9478 39.5677C18.3275 40.8012 16.3359 41.4471 14.3001 41.3994C12.2643 41.3518 10.3051 40.6134 8.74426 39.3054C7.27091 38.1112 6.19664 36.4962 5.66463 34.6757C4.47217 30.3979 6.04847 25.628 7.6286 22.2279C8.84408 23.0026 9.94247 23.895 11.11 24.7177C9.40062 21.775 7.41681 18.1925 7.67335 13.6677C7.90365 9.59707 10.5598 6.67799 14.7257 6.41762C15.7222 6.34658 16.7218 6.50222 17.6495 6.87284C18.5773 7.24346 19.4089 7.81943 20.0822 8.55751C21.3565 9.85247 22.3191 11.4207 22.897 13.1431" fill="#21459D"/>
<path fill-rule="evenodd" clip-rule="evenodd" d="M35.1282 7.72769H37.3602C36.6513 13.3375 36.1485 18.9818 34.5454 23.8879C34.2977 24.656 33.9842 25.4013 33.6082 26.1154C33.2704 26.7379 32.6748 27.5932 31.8668 27.5567C30.4326 27.4928 29.6802 24.8999 29.3226 23.8002C27.7623 18.9984 27.1475 13.4366 26.5078 7.81469H28.5652C28.9234 11.5929 29.5347 15.3429 30.3948 19.0394C30.5216 19.6173 30.6857 20.1863 30.8861 20.743C31.0454 21.1543 31.3902 21.984 31.7817 22.0096C32.2212 22.0384 32.6063 21.1921 32.7637 20.7865C33.3471 19.0686 33.7655 17.299 34.0131 15.5017C34.4648 12.905 34.7718 10.4568 35.084 7.8582C35.0808 7.79422 35.077 7.73473 35.1288 7.72705" fill="#21459D"/>
<path fill-rule="evenodd" clip-rule="evenodd" d="M27.0051 18.0766C27.0435 18.0683 27.0473 18.0939 27.0499 18.1201C27.776 21.297 28.3697 24.4259 29.9063 26.9861C30.3292 27.6898 31.1288 28.8554 32.1383 28.7332C32.6814 28.6227 33.1701 28.3292 33.5227 27.9016C34.4938 26.8236 35.1719 25.0753 35.7093 23.403C36.2549 21.6533 36.7021 19.8744 37.0489 18.0747C37.1525 25.4412 37.0636 32.9977 37.0936 40.4371H34.1886V31.7495C33.609 32.0617 32.9246 33.6687 31.9119 33.6687C30.9785 33.6687 30.3842 32.3317 29.7694 31.9216V40.4415H27.002" fill="#21459D"/>
<path fill-rule="evenodd" clip-rule="evenodd" d="M41.1083 39.9613C43.2487 37.9165 44.9472 35.4546 46.099 32.7278C47.2508 30.0009 47.8314 27.0669 47.805 24.1069C47.805 16.6355 44.6518 11.5637 40.8422 7.77207C40.8422 7.726 40.7852 7.73816 40.7974 7.81557V40.1794C40.9644 40.2434 41.029 40.0368 41.1096 39.9607L41.1083 39.9613ZM39.2326 6.33331C34.7262 2.70767 29.0258 0.900198 23.2535 1.26666C19.3715 1.4576 15.5982 2.61254 12.2744 4.62716C9.40622 6.39331 6.94293 8.74478 5.04552 11.5279C2.95229 14.6207 1.69158 18.2009 1.385 21.9229C1.02712 25.9379 1.73526 29.9762 3.43788 33.6299C4.94955 36.7717 7.15193 39.531 9.88034 41.7017C12.6088 43.8723 15.7926 45.398 19.1938 46.1647C23.3371 47.0486 27.6367 46.8683 31.6915 45.6408C34.8241 44.6522 37.7135 43.0153 40.1718 40.8364C40.278 40.7443 40.5997 40.6746 40.4839 40.4437H38.117V7.72856H40.704C40.2762 7.20154 39.7816 6.73251 39.2326 6.33331ZM49.0966 22.8869V25.158C48.7797 31.2978 46.0919 37.0749 41.5996 41.2721C37.5226 45.0132 32.2487 47.9982 24.6385 47.9982C20.0757 48.0534 15.5884 46.831 11.6839 44.4693C7.77947 42.1075 4.61359 38.7006 2.54419 34.6336C1.0699 31.7544 0.203878 28.6025 0 25.3742V22.6234C0.394686 16.662 2.9872 11.0591 7.27563 6.89947C11.1434 3.11356 16.4288 0.497069 23.3878 0H25.7094C31.7866 0.291701 37.5481 2.79223 41.9118 7.0319C46.2182 11.2235 48.7845 16.8856 49.0979 22.8869" fill="#21459D"/>
</svg>
